<?xml version="1.0" standalone="no"?>
<!DOCTYPE svg PUBLIC "-//W3C//DTD SVG 20010904//EN"
 "http://www.w3.org/TR/2001/REC-SVG-20010904/DTD/svg10.dtd">
<svg version="1.0" xmlns="http://www.w3.org/2000/svg"
 width="300.000000pt" height="200.000000pt" viewBox="0 0 300.000000 200.000000"
 preserveAspectRatio="xMidYMid meet">
<metadata>
Created by potrace 1.10, written by Peter Selinger 2001-2011
</metadata>
<g transform="translate(0.000000,200.000000) scale(0.100000,-0.100000)"
fill="#000000" stroke="none">
<path d="M883 1866 c2 -6 12 -13 23 -15 10 -1 27 -10 37 -19 26 -23 44 -23 50
-1 3 10 12 19 21 19 9 0 16 6 16 13 0 8 -23 12 -75 13 -52 1 -75 -2 -72 -10z"/>
<path d="M1100 1869 c0 -18 34 -27 125 -32 121 -7 187 -26 253 -71 l50 -35 27
29 28 30 -58 25 c-31 14 -85 32 -119 40 -65 14 -306 26 -306 14z"/>
<path d="M1712 1845 c-67 -31 -151 -111 -182 -172 -31 -62 -38 -146 -16 -209
21 -63 20 -75 -10 -119 l-25 -38 23 -23 23 -24 35 48 c34 45 38 47 97 54 82 9
140 36 182 83 71 82 114 231 91 322 -6 27 -16 55 -23 64 -34 46 -115 51 -195
14z m145 -9 c11 -4 29 -23 38 -43 35 -72 0 -236 -66 -316 -40 -48 -89 -72
-163 -81 -33 -4 -64 -10 -70 -15 -6 -4 -18 -10 -27 -14 -12 -4 -15 0 -11 18 2
13 -3 48 -12 78 -31 108 -12 193 62 271 82 85 179 125 249 102z"/>
<path d="M1593 1684 c-33 -49 -38 -66 -41 -127 -5 -83 12 -86 21 -2 3 35 18
78 40 120 43 80 31 85 -20 9z"/>
<path d="M1850 1573 c-49 -69 -83 -103 -121 -125 -34 -19 -51 -38 -34 -38 18
0 85 43 111 72 30 31 79 116 72 123 -2 2 -14 -13 -28 -32z"/>
<path d="M1060 1853 c0 -5 46 -61 101 -124 56 -62 108 -122 117 -132 12 -13
13 -20 4 -29 -9 -9 -29 7 -84 68 -207 227 -240 244 -68 35 98 -119 117 -151
91 -151 -4 0 -61 61 -126 135 -65 75 -120 133 -123 130 -3 -2 43 -68 101 -144
59 -77 107 -145 107 -151 0 -29 -36 5 -135 128 -58 72 -109 132 -112 132 -11
0 9 -33 98 -167 142 -214 151 -222 237 -229 52 -4 60 -8 97 -47 22 -24 114
-141 204 -260 l163 -217 143 0 c78 0 157 -3 174 -6 37 -8 43 11 6 20 -15 4
-30 18 -35 32 -13 33 -13 435 0 468 5 14 20 28 35 32 54 13 20 21 -85 20 -60
0 -110 -3 -110 -6 0 -3 14 -13 30 -22 l30 -17 0 -239 c0 -244 -3 -262 -40
-262 -8 0 -79 71 -158 157 -78 87 -165 183 -193 213 -28 30 -73 81 -100 112
l-48 57 6 73 c5 72 5 74 -31 118 -51 65 -296 290 -296 273z m297 -404 c1 -67
-2 -88 -10 -80 -6 6 -25 11 -43 11 -56 0 -93 12 -119 38 l-26 26 24 24 c13 13
48 43 78 67 53 42 54 43 74 24 17 -17 20 -34 22 -110z m625 -336 c-2 -196 -5
-249 -15 -251 -11 -2 -14 46 -16 248 -2 234 -1 250 16 250 17 0 18 -15 15
-247z m-384 -15 c104 -109 202 -220 202 -230 0 -4 -11 -8 -23 -8 -16 0 -37 16
-63 47 -46 55 -205 273 -199 273 2 0 40 -37 83 -82z"/>
<path d="M960 1252 c0 -345 -1 -370 -18 -385 -10 -10 -28 -17 -40 -17 -12 0
-22 -6 -22 -12 0 -10 54 -12 242 -10 271 2 347 13 447 63 l61 30 -27 34 -27
34 -35 -31 c-47 -41 -128 -77 -190 -85 -28 -3 -51 -3 -51 0 0 4 36 66 80 138
44 73 80 133 80 133 0 1 -11 17 -24 35 l-24 32 -126 -172 -126 -172 -40 -1
-41 -1 1 293 1 293 -57 85 c-31 46 -58 84 -60 84 -2 0 -4 -166 -4 -368z m88
-92 l-3 -295 -25 -3 -25 -3 1 318 c0 175 2 323 3 328 1 6 13 -3 27 -20 l25
-30 -3 -295z m362 -29 c0 -5 -31 -63 -70 -127 -38 -65 -70 -124 -70 -132 0 -9
-10 -12 -32 -10 -18 2 -32 7 -31 11 2 14 188 266 196 266 4 1 7 -3 7 -8z"/>
<path d="M1933 1538 c-19 -25 -21 -46 -7 -67 27 -38 94 -18 94 28 0 39 -65 67
-87 39z"/>
<path d="M1785 1363 c-22 -12 -47 -23 -56 -23 -12 0 -18 -14 -22 -60 -4 -33
-15 -84 -25 -114 l-18 -54 33 -36 c19 -20 38 -34 44 -31 17 11 57 100 74 164
9 34 15 88 13 120 l-3 57 -40 -23z m11 -95 c-8 -56 -42 -154 -58 -164 -26 -16
-29 16 -12 111 15 79 22 99 39 105 31 12 38 1 31 -52z"/>
<path d="M172 334 l3 -176 49 -5 c63 -5 140 11 178 39 17 11 39 39 49 62 35
77 19 159 -40 209 -40 34 -89 47 -174 47 l-67 0 2 -176z m195 130 c45 -33 65
-81 60 -146 -6 -99 -63 -148 -174 -148 l-43 0 0 161 0 161 65 -4 c44 -3 74
-10 92 -24z"/>
<path d="M570 495 c-10 -12 -10 -18 0 -29 16 -20 42 -8 38 17 -4 26 -21 32
-38 12z"/>
<path d="M1340 329 c0 -157 2 -180 15 -177 13 3 16 30 18 181 2 163 1 177 -15
177 -17 0 -18 -15 -18 -181z"/>
<path d="M2132 335 c2 -161 3 -175 20 -175 16 0 18 9 18 74 l0 74 65 4 c55 3
69 8 95 33 22 21 30 38 30 63 0 74 -42 102 -155 102 l-75 0 2 -175z m166 135
c15 -15 22 -33 22 -60 0 -53 -34 -80 -101 -80 l-49 0 0 80 0 80 53 0 c40 0 59
-5 75 -20z"/>
<path d="M810 399 c-13 -6 -33 -18 -44 -27 -18 -16 -19 -16 -14 6 5 17 2 22
-13 22 -18 0 -19 -9 -19 -126 0 -113 2 -125 17 -122 15 3 17 15 14 94 -3 89
-2 92 25 113 35 28 78 27 98 -1 12 -16 16 -47 16 -115 0 -76 3 -93 15 -93 24
0 22 211 -2 233 -25 21 -63 28 -93 16z"/>
<path d="M1083 395 c-41 -18 -63 -61 -63 -126 0 -45 4 -55 34 -85 27 -27 42
-34 73 -34 38 0 103 31 103 50 0 15 -9 12 -37 -10 -45 -35 -102 -19 -128 35
-27 58 -24 60 75 57 l90 -3 0 26 c0 41 -26 82 -61 94 -40 14 -47 13 -86 -4z
m91 -27 c8 -13 17 -33 21 -45 6 -22 4 -23 -69 -23 -46 0 -76 4 -76 10 0 18 29
68 42 73 32 13 68 6 82 -15z"/>
<path d="M1585 400 c-25 -9 -52 -40 -37 -40 6 0 14 5 17 10 9 14 68 13 83 -2
8 -8 12 -48 12 -116 0 -91 2 -103 16 -98 9 3 18 6 20 6 9 0 3 181 -7 203 -18
39 -62 55 -104 37z"/>
<path d="M1900 399 c-13 -6 -33 -18 -44 -27 -18 -16 -19 -16 -14 6 5 17 2 22
-13 22 -18 0 -19 -9 -19 -126 0 -111 2 -125 16 -122 15 3 17 16 15 90 -2 82
-1 89 23 113 32 32 79 34 100 3 12 -16 16 -47 16 -115 0 -76 3 -93 15 -93 24
0 22 211 -2 233 -25 21 -63 28 -93 16z"/>
<path d="M2514 378 l-37 -33 6 28 c6 23 4 27 -13 27 -19 0 -20 -6 -20 -126 0
-114 2 -125 18 -122 15 3 17 15 17 90 0 98 17 131 64 126 20 -2 27 2 29 20 5
32 -20 28 -64 -10z"/>
<path d="M2714 400 c-41 -16 -74 -68 -74 -116 0 -85 47 -134 129 -134 63 0
103 41 108 111 5 64 -9 94 -56 126 -35 24 -70 28 -107 13z m100 -41 c22 -25
26 -41 26 -90 0 -50 -4 -64 -25 -84 -60 -61 -135 -4 -135 103 0 65 27 102 75
102 25 0 40 -8 59 -31z"/>
<path d="M570 274 c0 -110 2 -125 16 -122 14 2 16 22 18 126 1 110 -1 122 -16
122 -16 0 -18 -13 -18 -126z"/>
<path d="M1497 278 c2 -99 5 -124 17 -126 12 -3 15 16 18 100 4 125 1 148 -21
148 -14 0 -16 -15 -14 -122z"/>
</g>
</svg>
